<svg xmlns="http://www.w3.org/2000/svg" xmlns:xlink="http://www.w3.org/1999/xlink" xmlns:lucid="lucid" width="758" height="461"><g transform="translate(-653 -319)" lucid:page-tab-id="0_0"><path d="M680 346c0-3.3 2.7-6 6-6h688c3.3 0 6 2.7 6 6v408c0 3.3-2.7 6-6 6H686c-3.3 0-6-2.7-6-6z" stroke="#ef8d22" stroke-width="7" fill="#fff"/><path d="M687 386l690-1.6M687.08 386H681M1376.92 384.4h3.08" stroke="#ef8d22" stroke-width="6" fill="none"/><path d="M1320 345c0-3.3 2.7-6 6-6h48c3.3 0 6 2.7 6 6v30c0 3.3-2.7 6-6 6h-48c-3.3 0-6-2.7-6-6z" stroke="#000" stroke-opacity="0" stroke-width="3" fill="#fff" fill-opacity="0"/><use xlink:href="#a" transform="matrix(1,0,0,1,1325,344) translate(18.333333333333336 23.333333333333332)"/><path d="M1300 356c0-3.3 2.7-6 6-6h8c3.3 0 6 2.7 6 6v8c0 3.3-2.7 6-6 6h-8c-3.3 0-6-2.7-6-6z" stroke="#ef8d22" stroke-width="3" fill="#fff"/><path d="M1256.17 361.33h21.66M1256.2 361.33h-1.53M1277.8 361.33h1.53" stroke="#ef8d22" stroke-width="3" fill="none"/><path d="M830 446c0-3.3 2.7-6 6-6h388c3.3 0 6 2.7 6 6v220.3c0 3.32-2.7 6-6 6H836c-3.3 0-6-2.68-6-6z" stroke="#000" stroke-opacity="0" stroke-width="3" fill="#fff" fill-opacity="0"/><use xlink:href="#b" transform="matrix(1,0,0,1,835,445) translate(-101.74888888888813 180.74444444444424)"/><defs><path fill="#ef8d22" d="M141 0L90-78 38 0H4l68-98-65-92h35l48 74 47-74h35l-64 92 68 98h-35" id="c"/><use transform="matrix(0.07407407407407407,0,0,0.07407407407407407,0,0)" xlink:href="#c" id="a"/><path fill="#3aa6dd" d="M59-202c-40-21-38-103 0-130l278-197c58-32 43 57 43 104 0 30-19 49-43 66l-130 92 130 92c24 17 43 36 43 66 0 47 11 142-43 104" id="d"/><path fill="#3aa6dd" d="M324-654c21-52 94-48 167-46 25 0 30 22 17 46L191-46C170 6 97 2 24 0-1 0-6-22 7-46" id="e"/><path fill="#3aa6dd" d="M229-670v347c111 5 129-94 163-166 26-56 89-45 162-46 26 0 30 21 17 46-42 80-69 200-167 221 90 25 138 147 187 222 42 64-62 46-109 46-81 0-100-95-137-147-30-42-71-65-116-65v182C224 22 139 0 90 0 73 0 60-13 60-30v-640c5-52 90-30 139-30 17 0 30 13 30 30" id="f"/><path fill="#3aa6dd" d="M570-216H202c7 80 43 115 125 115 42 0 81-11 96-33 23-33 77-25 129-26 17 0 30 13 30 30C582-26 475 10 315 10 137 10 30-86 30-267c0-180 108-278 285-278 188 1 295 104 285 299 0 17-13 30-30 30zM315-434c-72 0-110 40-114 115h227c-3-75-39-115-113-115" id="g"/><path fill="#3aa6dd" d="M453-30v-280c0-83-38-117-93-117-49 0-95 34-131 70v327C224 22 139 0 90 0 73 0 60-13 60-30v-475c5-52 90-25 139-30 29-3 33 29 30 61 46-39 96-71 171-71 130 0 222 69 222 235v280c-5 52-90 30-139 30-17 0-30-13-30-30" id="h"/><path fill="#3aa6dd" d="M361-332c40 21 38 103 0 130L83-5C25 27 40-62 40-109c0-30 19-49 43-66l130-92-130-92c-24-17-43-36-43-66 0-47-11-142 43-104" id="i"/><g id="b"><use transform="matrix(0.18222222222222176,0,0,0.18222222222222176,0,0)" xlink:href="#d"/><use transform="matrix(0.18222222222222176,0,0,0.18222222222222176,76.53333333333313,0)" xlink:href="#e"/><use transform="matrix(0.18222222222222176,0,0,0.18222222222222176,170.37777777777734,0)" xlink:href="#f"/><use transform="matrix(0.18222222222222176,0,0,0.18222222222222176,277.8888888888882,0)" xlink:href="#g"/><use transform="matrix(0.18222222222222176,0,0,0.18222222222222176,392.6888888888879,0)" xlink:href="#h"/><use transform="matrix(0.18222222222222176,0,0,0.18222222222222176,516.9644444444432,0)" xlink:href="#i"/></g></defs></g></svg>