<svg xmlns="http://www.w3.org/2000/svg" xmlns:xlink="http://www.w3.org/1999/xlink" xmlns:lucid="lucid" width="460" height="440"><g transform="translate(-320 -400)" lucid:page-tab-id="0_0"><path d="M760 620c0 110.46-94.02 200-210 200s-210-89.54-210-200 94.02-200 210-200 210 89.54 210 200z" stroke="#ef8d22" stroke-width="3" fill="#fff"/><path d="M350 506c0-3.3 2.7-6 6-6h388c3.3 0 6 2.7 6 6v220.3c0 3.32-2.7 6-6 6H356c-3.3 0-6-2.68-6-6z" stroke="#000" stroke-opacity="0" stroke-width="3" fill="#fff" fill-opacity="0"/><use xlink:href="#a" transform="matrix(1,0,0,1,355,505) translate(15.966666666667123 180.39999999999952)"/><defs><path fill="#3aa6dd" d="M59-202c-40-21-38-103 0-130l278-197c58-32 43 57 43 104 0 30-19 49-43 66l-130 92 130 92c24 17 43 36 43 66 0 47 11 142-43 104" id="b"/><path fill="#3aa6dd" d="M324-654c21-52 94-48 167-46 25 0 30 22 17 46L191-46C170 6 97 2 24 0-1 0-6-22 7-46" id="c"/><path fill="#3aa6dd" d="M229-670v347c111 5 129-94 163-166 26-56 89-45 162-46 26 0 30 21 17 46-42 80-69 200-167 221 90 25 138 147 187 222 42 64-62 46-109 46-81 0-100-95-137-147-30-42-71-65-116-65v182C224 22 139 0 90 0 73 0 60-13 60-30v-640c5-52 90-30 139-30 17 0 30 13 30 30" id="d"/><path fill="#3aa6dd" d="M361-332c40 21 38 103 0 130L83-5C25 27 40-62 40-109c0-30 19-49 43-66l130-92-130-92c-24-17-43-36-43-66 0-47-11-142 43-104" id="e"/><g id="a"><use transform="matrix(0.18222222222222176,0,0,0.18222222222222176,0,0)" xlink:href="#b"/><use transform="matrix(0.18222222222222176,0,0,0.18222222222222176,76.53333333333313,0)" xlink:href="#c"/><use transform="matrix(0.18222222222222176,0,0,0.18222222222222176,170.37777777777734,0)" xlink:href="#d"/><use transform="matrix(0.18222222222222176,0,0,0.18222222222222176,281.5333333333326,0)" xlink:href="#e"/></g></defs></g></svg>